<?xml version="1.0" encoding="UTF-8"?>
<svg id="Layer_1" data-name="Layer 1" xmlns="http://www.w3.org/2000/svg" viewBox="0 0 221.75 175.87">
  <defs>
    <style>
      .cls-1 {
        fill: #000;
      }

      .cls-1, .cls-2 {
        stroke-width: 0px;
      }

      .cls-2 {
        fill: #3ca20c;
      }
    </style>
  </defs>
  <path class="cls-1" d="M103.74,13.06c0,3.24-.86,6.23-2.56,8.96-1.71,2.73-4.18,3.93-7.42,3.58-6.66-.85-13.53-1.45-20.61-1.79-7.08-.34-14.21-.55-21.38-.64-7.17-.08-14.17-.13-20.99-.13-1.71,0-2.9.43-3.58,1.28-.68.86-.94,2.14-.77,3.84.85,7.34,1.36,14.89,1.54,22.66.17,7.77.26,15.32.26,22.66,0,1.71.42,2.9,1.28,3.58.85.68,2.13.94,3.84.77,8.19-.85,16.38-1.49,24.58-1.92,8.19-.42,16.29-1.24,24.32-2.43,2.22-.34,4.05.13,5.51,1.41,1.45,1.28,2.56,2.94,3.33,4.99.77,2.05,1.15,4.27,1.15,6.66,0,3.24-.86,5.72-2.56,7.42-1.71,1.71-4.19,2.56-7.43,2.56-8.19,0-16.43.09-24.7.26-8.28.17-16.51.77-24.7,1.79-1.54.17-2.69.68-3.46,1.54-.77.86-1.15,2.05-1.15,3.58,0,7.51-.13,14.85-.38,22.02-.26,7.17-.81,14.51-1.66,22.02-.17,1.71.13,2.99.9,3.84.77.86,2,1.28,3.71,1.28,7.17,0,14.34-.04,21.5-.13,7.17-.08,14.34-.34,21.5-.77,7.17-.42,14.25-.98,21.25-1.66,3.24-.34,5.72.9,7.42,3.71,1.71,2.82,2.56,5.93,2.56,9.34s-.86,5.72-2.56,7.42c-1.71,1.71-4.18,2.56-7.42,2.56H12.6c-3.24,0-6.23-.85-8.96-2.56-2.73-1.7-3.93-4.18-3.58-7.42,1.7-16.72,2.86-33.45,3.46-50.18.6-16.72.6-33.49,0-50.3C2.91,46.04,1.76,29.27.06,12.54c-.34-3.24.85-5.72,3.58-7.42,2.73-1.7,5.72-2.56,8.96-2.56h81.15c3.24,0,5.71.9,7.42,2.69,1.7,1.79,2.56,4.4,2.56,7.81Z"/>
  <path class="cls-2" d="M221.75,122.11c0,10.75-2.48,20.18-7.42,28.29-4.95,8.11-11.86,14.38-20.74,18.82-8.88,4.44-19.37,6.66-31.49,6.66-5.98,0-12.03-.56-18.18-1.66-6.14-1.11-12.03-2.77-17.66-4.99-3.07-1.36-5.08-3.2-6.02-5.5-.94-2.3-1.32-4.82-1.15-7.55,0-2.05.6-4.01,1.79-5.89,1.19-1.88,2.6-3.46,4.22-4.74,1.62-1.28,3.33-2.13,5.12-2.56,1.79-.42,3.37-.21,4.74.64,4.1,2.56,8.45,4.74,13.06,6.53,4.61,1.79,9.3,2.69,14.08,2.69,11.09,0,19.54-2.43,25.34-7.3,5.8-4.86,8.7-12.67,8.7-23.42,0-5.97-2.9-11.39-8.7-16.26-5.8-4.86-14.25-8.83-25.34-11.9-13.82-3.92-24.41-10.07-31.74-18.43-7.34-8.36-11.01-18.34-11.01-29.95,0-13.82,4.1-24.87,12.29-33.15,8.19-8.28,19.2-12.42,33.02-12.42,12.63,0,23.64,2.99,33.02,8.96,2.9,1.88,4.69,4.1,5.38,6.66.68,2.56-.17,5.04-2.56,7.42l-1.28,1.28c-2.22,2.22-4.86,3.67-7.94,4.35-3.07.68-5.98.17-8.7-1.54-2.39-1.36-5.08-2.82-8.06-4.35-2.99-1.54-6.27-2.3-9.86-2.3-7.17,0-12.67,2.14-16.51,6.4-3.84,4.27-5.76,10.41-5.76,18.43,0,6.66,2.22,12.08,6.66,16.26,4.44,4.18,11.35,7.3,20.74,9.34,16.72,3.93,29.57,10.28,38.53,19.07,8.96,8.79,13.44,19.5,13.44,32.13Z"/>
</svg>